<svg width="1672" height="733" viewBox="0 0 1672 733" fill="none" xmlns="http://www.w3.org/2000/svg">
<g filter="url(#filter0_d_247_2)">
<path d="M559.215 28C559.215 17.7828 567.498 9.5 577.715 9.5H1083.97C1094.18 9.5 1102.47 17.7827 1102.47 28V342.146C1102.47 352.363 1094.18 360.646 1083.97 360.646H577.715C567.498 360.646 559.215 352.363 559.215 342.146V28Z" stroke="white" stroke-width="3" shape-rendering="crispEdges"/>
</g>
<path opacity="0.6" d="M708.893 157.22L651.842 216.151L725.194 241.033L789.813 290.797L770.602 197.817L784.574 157.22L747.316 137.576L708.893 157.22Z" fill="#728CA4" stroke="#728CA4" stroke-width="2"/>
<rect x="950.979" y="204.436" width="24.4506" height="10.4766" fill="#A49C72"/>
<rect x="950.979" y="233.247" width="24.4506" height="10.4766" fill="#728CA4"/>
<rect x="950.979" y="262.058" width="24.4506" height="10.4766" fill="#A47284"/>
<rect x="950.979" y="290.868" width="24.4506" height="10.4766" fill="#72A47D"/>
<path d="M649.903 103.823L747.316 51.0579L844.73 103.823L868.809 222.482L801.364 317.606H693.268L625.824 222.482L649.903 103.823Z" stroke="#BDBDBD"/>
<path d="M626.229 222.043L747.317 191.268L843.955 104.182" stroke="#BDBDBD"/>
<path d="M801.83 317.803L748.243 191.852L651.275 105.229" stroke="#BDBDBD"/>
<path d="M748.211 51.6881L747.821 191.317L693.248 316.341" stroke="#BDBDBD"/>
<path d="M747.898 191.923L868.405 222.698" stroke="#BDBDBD"/>
<path opacity="0.6" d="M691.43 141.505L747.317 52.4536L764.781 174.244L801.457 204.364L756.631 212.222L711.223 273.772L731.016 195.197L691.43 141.505Z" fill="#A49C72" stroke="#A49C72" stroke-width="2"/>
<ellipse cx="747.315" cy="52.4539" rx="2.91079" ry="3.27394" fill="#A49C72"/>
<ellipse cx="691.428" cy="141.505" rx="2.91079" ry="3.27394" fill="#A49C72"/>
<ellipse cx="731.014" cy="195.198" rx="2.91079" ry="3.27394" fill="#A49C72"/>
<ellipse cx="711.221" cy="273.772" rx="2.91079" ry="3.27394" fill="#A49C72"/>
<ellipse cx="756.631" cy="212.222" rx="2.91079" ry="3.27394" fill="#A49C72"/>
<ellipse cx="800.876" cy="204.365" rx="2.91079" ry="3.27394" fill="#A49C72"/>
<ellipse cx="764.78" cy="174.244" rx="2.91079" ry="3.27394" fill="#A49C72"/>
<ellipse cx="651.84" cy="216.151" rx="2.91079" ry="3.27394" fill="#728CA4"/>
<ellipse cx="725.194" cy="241.033" rx="2.91079" ry="3.27394" fill="#728CA4"/>
<ellipse cx="790.395" cy="290.797" rx="2.91079" ry="3.27394" fill="#728CA4"/>
<ellipse cx="784.575" cy="157.22" rx="2.91079" ry="3.27394" fill="#728CA4"/>
<ellipse cx="747.315" cy="81.2644" rx="2.91079" ry="3.27394" fill="#A47284"/>
<ellipse cx="825.325" cy="121.862" rx="2.91079" ry="3.27394" fill="#A47284"/>
<ellipse cx="820.669" cy="209.603" rx="2.91079" ry="3.27394" fill="#A47284"/>
<ellipse cx="768.274" cy="239.723" rx="2.91079" ry="3.27394" fill="#A47284"/>
<ellipse cx="770.602" cy="197.817" rx="2.91079" ry="3.27394" fill="#728CA4"/>
<ellipse cx="747.315" cy="137.576" rx="2.91079" ry="3.27394" fill="#728CA4"/>
<ellipse cx="708.893" cy="157.22" rx="2.91079" ry="3.27394" fill="#728CA4"/>
<ellipse cx="768.274" cy="239.723" rx="2.91079" ry="3.27394" fill="#A47284"/>
<ellipse cx="724.03" cy="196.507" rx="2.91079" ry="3.27394" fill="#A47284"/>
<ellipse cx="669.307" cy="121.862" rx="2.91079" ry="3.27394" fill="#A47284"/>
<ellipse cx="736.839" cy="216.151" rx="2.91079" ry="3.27394" fill="#A47284"/>
<path opacity="0.6" d="M747.316 81.2644L669.307 121.861L724.029 196.507L736.837 216.151L768.273 239.723L820.667 209.603L825.325 121.861L747.316 81.2644Z" fill="#A47284" stroke="#A47284" stroke-width="2"/>
<ellipse cx="669.307" cy="121.862" rx="2.91079" ry="3.27394" fill="#72A47D"/>
<ellipse cx="626.227" cy="221.389" rx="2.91079" ry="3.27394" fill="#72A47D"/>
<ellipse cx="736.839" cy="216.151" rx="2.91079" ry="3.27394" fill="#72A47D"/>
<ellipse cx="770.602" cy="199.126" rx="2.91079" ry="3.27394" fill="#72A47D"/>
<ellipse cx="845.118" cy="104.837" rx="2.91079" ry="3.27394" fill="#72A47D"/>
<ellipse cx="747.315" cy="107.456" rx="2.91079" ry="3.27394" fill="#72A47D"/>
<path opacity="0.6" d="M626.229 221.389L669.308 121.861L747.317 107.456L845.12 104.837L770.603 198.472L736.838 216.151L626.229 221.389Z" fill="#72A47D" stroke="#72A47D" stroke-width="2"/>
<path d="M984.746 214.913C991.732 214.913 989.986 205.091 996.971 205.091C1003.96 205.091 1003.38 214.914 1010.36 214.913C1017.35 214.912 1016.34 205.091 1023.17 205.091C1029.57 205.091 1029.57 214.913 1035.98 214.913C1042.38 214.913 1041.8 205.091 1048.78 205.091" stroke="white" stroke-width="2" stroke-linecap="round"/>
<path d="M984.746 243.069C991.732 243.069 989.986 233.247 996.971 233.247C1003.96 233.247 1003.38 243.069 1010.36 243.069C1017.35 243.068 1016.34 233.247 1023.17 233.247C1029.57 233.247 1029.57 243.069 1035.98 243.069C1042.38 243.069 1041.8 233.247 1048.78 233.247" stroke="white" stroke-width="2" stroke-linecap="round"/>
<path d="M984.746 271.88C991.732 271.88 989.986 262.058 996.971 262.058C1003.96 262.058 1003.38 271.88 1010.36 271.88C1017.35 271.879 1016.34 262.058 1023.17 262.058C1029.57 262.058 1029.57 271.88 1035.98 271.88C1042.38 271.88 1041.8 262.058 1048.78 262.058" stroke="white" stroke-width="2" stroke-linecap="round"/>
<path d="M984.746 300.69C991.732 300.69 989.986 290.868 996.971 290.868C1003.96 290.868 1003.38 300.691 1010.36 300.69C1017.35 300.689 1016.34 290.868 1023.17 290.868C1029.57 290.868 1029.57 300.69 1035.98 300.69C1042.38 300.69 1041.8 290.868 1048.78 290.868" stroke="white" stroke-width="2" stroke-linecap="round"/>
<path d="M950.979 95.087C957.964 95.087 956.218 85.2651 963.204 85.2651C970.19 85.2651 969.608 95.0877 976.593 95.087C983.579 95.0862 982.577 85.2651 989.401 85.2651C995.805 85.2651 995.805 95.087 1002.21 95.087C1008.61 95.087 1008.03 85.2651 1015.02 85.2651" stroke="white" stroke-width="2" stroke-linecap="round"/>
<path d="M952.143 132.409C962.431 132.409 959.859 118.004 970.147 118.004C980.435 118.004 979.578 132.411 989.866 132.409C1000.15 132.408 998.678 118.004 1008.73 118.004C1018.16 118.004 1018.16 132.409 1027.59 132.409C1037.02 132.409 1036.16 118.004 1046.45 118.004" stroke="white" stroke-width="4" stroke-linecap="round"/>
<g filter="url(#filter1_d_247_2)">
<path d="M559.215 439.798C559.215 429.58 567.498 421.298 577.715 421.298H1076.79C1087.01 421.298 1095.29 429.58 1095.29 439.798V701C1095.29 711.217 1087.01 719.5 1076.79 719.5H577.715C567.498 719.5 559.215 711.217 559.215 701V439.798Z" stroke="white" stroke-width="3" shape-rendering="crispEdges"/>
</g>
<path d="M778.433 494.443C778.433 504.35 771.305 512.277 762.632 512.277C753.96 512.277 746.832 504.35 746.832 494.443C746.832 484.537 753.96 476.609 762.632 476.609C771.305 476.609 778.433 484.537 778.433 494.443Z" fill="#728CA4" stroke="#728CA4"/>
<path d="M739.348 574.327L1047.89 574.327" stroke="#ECECEC" stroke-width="2"/>
<path d="M893.037 465.633L893.037 684.332" stroke="#ECECEC" stroke-width="2"/>
<path d="M802.886 569.089C802.886 573.933 799.408 577.756 795.236 577.756C791.065 577.756 787.586 573.933 787.586 569.089C787.586 564.246 791.065 560.422 795.236 560.422C799.408 560.422 802.886 564.246 802.886 569.089Z" fill="#72A47D" stroke="#72A47D"/>
<path d="M946.097 593.971C946.097 598.815 942.619 602.638 938.447 602.638C934.276 602.638 930.797 598.815 930.797 593.971C930.797 589.128 934.276 585.304 938.447 585.304C942.619 585.304 946.097 589.128 946.097 593.971Z" fill="#728CA4" stroke="#728CA4"/>
<path d="M939.11 513.432C939.11 520.084 934.328 525.373 928.549 525.373C922.77 525.373 917.988 520.084 917.988 513.432C917.988 506.78 922.77 501.491 928.549 501.491C934.328 501.491 939.11 506.78 939.11 513.432Z" fill="#728CA4" stroke="#728CA4"/>
<path d="M862.265 636.532C862.265 643.184 857.483 648.473 851.704 648.473C845.925 648.473 841.143 643.184 841.143 636.532C841.143 629.881 845.925 624.591 851.704 624.591C857.483 624.591 862.265 629.881 862.265 636.532Z" fill="#728CA4" stroke="#728CA4"/>
<path d="M765.626 647.009C765.626 653.661 760.844 658.95 755.065 658.95C749.286 658.95 744.504 653.661 744.504 647.009C744.504 640.357 749.286 635.068 755.065 635.068C760.844 635.068 765.626 640.357 765.626 647.009Z" fill="#728CA4" stroke="#728CA4"/>
<path d="M1040.41 546.172C1040.41 552.823 1035.62 558.113 1029.84 558.113C1024.07 558.113 1019.28 552.823 1019.28 546.172C1019.28 539.52 1024.07 534.231 1029.84 534.231C1035.62 534.231 1040.41 539.52 1040.41 546.172Z" fill="#728CA4" stroke="#728CA4"/>
<path d="M856.444 485.276C856.444 491.566 851.923 496.563 846.465 496.563C841.008 496.563 836.486 491.566 836.486 485.276C836.486 478.986 841.008 473.99 846.465 473.99C851.923 473.99 856.444 478.986 856.444 485.276Z" fill="#ECE3B3" stroke="#ECE3B3"/>
<path d="M783.09 512.777C783.09 519.067 778.569 524.064 773.112 524.064C767.654 524.064 763.133 519.067 763.133 512.777C763.133 506.487 767.654 501.491 773.112 501.491C778.569 501.491 783.09 506.487 783.09 512.777Z" fill="#ECE3B3" stroke="#ECE3B3"/>
<path d="M818.021 620.163C818.021 632.962 808.808 643.235 797.563 643.235C786.318 643.235 777.105 632.962 777.105 620.163C777.105 607.363 786.318 597.09 797.563 597.09C808.808 597.09 818.021 607.363 818.021 620.163Z" fill="#ECE3B3" stroke="#ECE3B3"/>
<path d="M776.105 542.898C776.105 547.741 772.626 551.565 768.455 551.565C764.283 551.565 760.805 547.741 760.805 542.898C760.805 538.054 764.283 534.231 768.455 534.231C772.626 534.231 776.105 538.054 776.105 542.898Z" fill="#72A47D" stroke="#72A47D"/>
<path d="M872.744 554.684C872.744 559.527 869.265 563.351 865.094 563.351C860.922 563.351 857.443 559.527 857.443 554.684C857.443 549.84 860.922 546.017 865.094 546.017C869.265 546.017 872.744 549.84 872.744 554.684Z" fill="#ECE3B3" stroke="#ECE3B3"/>
<path d="M880.892 587.423C880.892 592.267 877.413 596.09 873.242 596.09C869.071 596.09 865.592 592.267 865.592 587.423C865.592 582.58 869.071 578.756 873.242 578.756C877.413 578.756 880.892 582.58 880.892 587.423Z" fill="#ECE3B3" stroke="#ECE3B3"/>
<path d="M908.838 554.684C908.838 559.527 905.359 563.351 901.187 563.351C897.016 563.351 893.537 559.527 893.537 554.684C893.537 549.84 897.016 546.017 901.187 546.017C905.359 546.017 908.838 549.84 908.838 554.684Z" fill="#ECE3B3" stroke="#ECE3B3"/>
<path d="M977.531 614.924C977.531 619.768 974.052 623.591 969.881 623.591C965.709 623.591 962.23 619.768 962.23 614.924C962.23 610.081 965.709 606.257 969.881 606.257C974.052 606.257 977.531 610.081 977.531 614.924Z" fill="#72A47D" stroke="#72A47D"/>
<path d="M908.837 637.842C908.837 645.217 903.534 651.092 897.112 651.092C890.69 651.092 885.387 645.217 885.387 637.842C885.387 630.467 890.69 624.591 897.112 624.591C903.534 624.591 908.837 630.467 908.837 637.842Z" fill="#ECE3B3" stroke="#ECE3B3"/>
<path d="M1001.98 499.027C1001.98 506.402 996.679 512.277 990.257 512.277C983.834 512.277 978.531 506.402 978.531 499.027C978.531 491.652 983.834 485.776 990.257 485.776C996.679 485.776 1001.98 491.652 1001.98 499.027Z" fill="#ECE3B3" stroke="#ECE3B3"/>
<path d="M1027.6 598.555C1027.6 604.483 1023.34 609.186 1018.2 609.186C1013.07 609.186 1008.8 604.483 1008.8 598.555C1008.8 592.626 1013.07 587.923 1018.2 587.923C1023.34 587.923 1027.6 592.626 1027.6 598.555Z" fill="#ECE3B3" stroke="#ECE3B3"/>
<path d="M1040.4 635.223C1040.4 641.151 1036.14 645.854 1031.01 645.854C1025.87 645.854 1021.61 641.151 1021.61 635.223C1021.61 629.294 1025.87 624.591 1031.01 624.591C1036.14 624.591 1040.4 629.294 1040.4 635.223Z" fill="#ECE3B3" stroke="#ECE3B3"/>
<path d="M834.323 522.599C834.323 528.528 830.062 533.231 824.926 533.231C819.79 533.231 815.529 528.528 815.529 522.599C815.529 516.671 819.79 511.968 824.926 511.968C830.062 511.968 834.323 516.671 834.323 522.599Z" fill="#A47284" stroke="#A47284"/>
<path d="M765.625 578.911C765.625 584.84 761.365 589.543 756.229 589.543C751.093 589.543 746.832 584.84 746.832 578.911C746.832 572.983 751.093 568.28 756.229 568.28C761.365 568.28 765.625 572.983 765.625 578.911Z" fill="#A47284" stroke="#A47284"/>
<path d="M961.233 579.566C961.233 588.026 955.147 594.781 947.761 594.781C940.374 594.781 934.289 588.026 934.289 579.566C934.289 571.106 940.374 564.351 947.761 564.351C955.147 564.351 961.233 571.106 961.233 579.566Z" fill="#A47284" stroke="#A47284"/>
<path d="M958.904 645.045C958.904 653.505 952.819 660.26 945.433 660.26C938.046 660.26 931.961 653.505 931.961 645.045C931.961 636.585 938.046 629.83 945.433 629.83C952.819 629.83 958.904 636.585 958.904 645.045Z" fill="#A47284" stroke="#A47284"/>
<path d="M993.833 538.969C993.833 545.982 988.791 551.565 982.69 551.565C976.589 551.565 971.547 545.982 971.547 538.969C971.547 531.956 976.589 526.373 982.69 526.373C988.791 526.373 993.833 531.956 993.833 538.969Z" fill="#72A47D" stroke="#72A47D"/>
<path d="M1040.4 485.276C1040.4 490.12 1036.93 493.943 1032.75 493.943C1028.58 493.943 1025.1 490.12 1025.1 485.276C1025.1 480.433 1028.58 476.609 1032.75 476.609C1036.93 476.609 1040.4 480.433 1040.4 485.276Z" fill="#A47284" stroke="#A47284"/>
<rect x="601.959" y="574.871" width="19.4572" height="8.33702" fill="#ECE3B3"/>
<rect x="601.959" y="597.798" width="19.4572" height="8.33702" fill="#728CA4"/>
<rect x="601.959" y="620.725" width="19.4572" height="8.33702" fill="#A47284"/>
<rect x="601.959" y="643.651" width="19.4572" height="8.33702" fill="#72A47D"/>
<path d="M628.828 583.208C634.387 583.208 632.998 575.392 638.557 575.392C644.116 575.392 643.653 583.208 649.212 583.208C654.771 583.207 653.973 575.392 659.404 575.392C664.5 575.392 664.5 583.208 669.596 583.208C674.691 583.208 674.228 575.392 679.787 575.392" stroke="white" stroke-width="2" stroke-linecap="round"/>
<path d="M628.828 605.614C634.387 605.614 632.998 597.798 638.557 597.798C644.116 597.798 643.653 605.614 649.212 605.614C654.771 605.613 653.973 597.798 659.404 597.798C664.5 597.798 664.5 605.614 669.596 605.614C674.691 605.614 674.228 597.798 679.787 597.798" stroke="white" stroke-width="2" stroke-linecap="round"/>
<path d="M628.828 628.54C634.387 628.54 632.998 620.724 638.557 620.724C644.116 620.724 643.653 628.541 649.212 628.54C654.771 628.54 653.973 620.724 659.404 620.724C664.5 620.724 664.5 628.54 669.596 628.54C674.691 628.54 674.228 620.724 679.787 620.724" stroke="white" stroke-width="2" stroke-linecap="round"/>
<path d="M628.828 651.468C634.387 651.468 632.998 643.652 638.557 643.652C644.116 643.652 643.653 651.468 649.212 651.468C654.771 651.467 653.973 643.652 659.404 643.652C664.5 643.652 664.5 651.468 669.596 651.468C674.691 651.468 674.228 643.652 679.787 643.652" stroke="white" stroke-width="2" stroke-linecap="round"/>
<path d="M601.959 487.854C607.518 487.854 606.128 480.038 611.688 480.038C617.247 480.038 616.783 487.855 622.343 487.854C627.902 487.854 627.104 480.038 632.535 480.038C637.63 480.038 637.63 487.854 642.726 487.854C647.822 487.854 647.359 480.038 652.918 480.038" stroke="white" stroke-width="2" stroke-linecap="round"/>
<path d="M621.752 487.854C627.311 487.854 625.921 480.038 631.481 480.038C637.04 480.038 636.576 487.855 642.136 487.854C647.695 487.854 646.897 480.038 652.327 480.038C657.423 480.038 657.423 487.854 662.519 487.854C667.615 487.854 667.152 480.038 672.711 480.038" stroke="white" stroke-width="2" stroke-linecap="round"/>
<path d="M602.887 517.553C611.074 517.553 609.027 506.09 617.214 506.09C625.401 506.09 624.719 517.554 632.906 517.553C641.094 517.553 639.918 506.09 647.916 506.09C655.421 506.09 655.421 517.553 662.926 517.553C670.431 517.553 669.749 506.09 677.936 506.09" stroke="white" stroke-width="4" stroke-linecap="round"/>
<path d="M633.395 517.693C641.582 517.693 639.535 506.229 647.722 506.229C655.909 506.229 655.227 517.694 663.414 517.693C671.601 517.692 670.426 506.229 678.424 506.229C685.929 506.229 685.929 517.693 693.434 517.693C700.939 517.693 700.256 506.229 708.444 506.229" stroke="white" stroke-width="4" stroke-linecap="round"/>
<g filter="url(#filter2_d_247_2)">
<path d="M1158.19 141.656C1158.19 131.439 1166.47 123.156 1176.69 123.156H1642C1652.22 123.156 1660.5 131.439 1660.5 141.656V587.509C1660.5 597.726 1652.22 606.009 1642 606.009H1176.69C1166.47 606.009 1158.19 597.726 1158.19 587.509V141.656Z" stroke="white" stroke-width="3" shape-rendering="crispEdges"/>
</g>
<path d="M1262.64 528.28C1269.62 528.28 1267.88 518.458 1274.86 518.458C1281.85 518.458 1281.27 528.28 1288.25 528.28C1295.24 528.279 1294.24 518.458 1301.06 518.458C1307.46 518.458 1307.46 528.28 1313.87 528.28C1320.27 528.28 1319.69 518.458 1326.68 518.458" stroke="white" stroke-width="2" stroke-linecap="round"/>
<path d="M1381.4 528.28C1388.38 528.28 1386.64 518.458 1393.62 518.458C1400.61 518.458 1400.03 528.28 1407.01 528.28C1414 528.279 1413 518.458 1419.82 518.458C1426.22 518.458 1426.22 528.28 1432.63 528.28C1439.03 528.28 1438.45 518.458 1445.44 518.458" stroke="white" stroke-width="2" stroke-linecap="round"/>
<path d="M1510.64 528.28C1517.63 528.28 1515.88 518.458 1522.87 518.458C1529.85 518.458 1529.27 528.28 1536.26 528.28C1543.24 528.279 1542.24 518.458 1549.06 518.458C1555.47 518.458 1555.47 528.28 1561.87 528.28C1568.27 528.28 1567.69 518.458 1574.68 518.458" stroke="white" stroke-width="2" stroke-linecap="round"/>
<rect x="1226.55" y="518.458" width="24.4506" height="10.4766" fill="#ECE3B3"/>
<rect x="1347.64" y="518.458" width="24.4506" height="10.4766" fill="#728CA4"/>
<rect x="1474.55" y="518.458" width="24.4506" height="10.4766" fill="#A47284"/>
<path opacity="0.6" d="M1227.13 304.997V375.714H1475.13L1412.25 269.638L1351.13 304.997L1289.42 339.701L1227.13 304.997Z" fill="#ECE3B3"/>
<path d="M1535.67 411.727L1475.13 375.714H1599.13V485.718L1535.67 411.727Z" fill="#ECE3B3"/>
<ellipse cx="1290" cy="341.01" rx="4.0751" ry="4.58352" fill="#728CA4"/>
<ellipse cx="1351.71" cy="411.727" rx="4.0751" ry="4.58352" fill="#728CA4"/>
<ellipse cx="1413.42" cy="445.776" rx="4.0751" ry="4.58352" fill="#728CA4"/>
<ellipse cx="1475.13" cy="341.01" rx="4.0751" ry="4.58352" fill="#728CA4"/>
<ellipse cx="1536.84" cy="305.652" rx="4.0751" ry="4.58352" fill="#728CA4"/>
<ellipse cx="1599.71" cy="341.01" rx="4.0751" ry="4.58352" fill="#728CA4"/>
<path d="M1227.13 412.382L1290 341.01L1351.71 412.382L1413.42 445.776L1475.71 341.01L1537.42 304.997L1598.55 341.01" stroke="#728CA4" stroke-width="2"/>
<path d="M1227.13 375.714L1289.42 411.072L1352.87 375.714L1412.25 336.426L1472.8 304.997L1536.25 340.355L1599.13 375.714" stroke="#A47284" stroke-width="2" stroke-dasharray="4 4"/>
<ellipse cx="1290" cy="411.727" rx="4.0751" ry="4.58352" fill="#A47284"/>
<ellipse cx="1351.71" cy="376.369" rx="4.0751" ry="4.58352" fill="#A47284"/>
<ellipse cx="1413.42" cy="335.772" rx="4.0751" ry="4.58352" fill="#A47284"/>
<ellipse cx="1475.13" cy="305.652" rx="4.0751" ry="4.58352" fill="#A47284"/>
<ellipse cx="1535.67" cy="341.01" rx="4.0751" ry="4.58352" fill="#A47284"/>
<ellipse cx="1599.71" cy="376.369" rx="4.0751" ry="4.58352" fill="#A47284"/>
<path d="M1226.55 186.481C1233.53 186.481 1231.79 176.659 1238.77 176.659C1245.76 176.659 1245.18 186.481 1252.16 186.481C1259.15 186.48 1258.15 176.659 1264.97 176.659C1271.37 176.659 1271.37 186.481 1277.78 186.481C1284.18 186.481 1283.6 176.659 1290.58 176.659" stroke="white" stroke-width="2" stroke-linecap="round"/>
<path d="M1277.78 186.481C1284.76 186.481 1283.02 176.659 1290 176.659C1296.99 176.659 1296.41 186.481 1303.39 186.481C1310.38 186.48 1309.38 176.659 1316.2 176.659C1322.6 176.659 1322.6 186.481 1329.01 186.481C1335.41 186.481 1334.83 176.659 1341.81 176.659" stroke="white" stroke-width="2" stroke-linecap="round"/>
<path d="M1227.71 223.803C1238 223.803 1235.43 209.398 1245.72 209.398C1256 209.398 1255.15 223.804 1265.43 223.803C1275.72 223.802 1274.25 209.398 1284.3 209.398C1293.73 209.398 1293.73 223.803 1303.16 223.803C1312.59 223.803 1311.73 209.398 1322.02 209.398C1332.31 209.398 1331.33 223.803 1340.65 223.803C1349.96 223.803 1351.13 209.398 1359.28 209.398" stroke="white" stroke-width="4" stroke-linecap="round"/>
<path d="M1303.39 223.803C1313.68 223.803 1311.11 209.398 1321.4 209.398C1331.69 209.398 1330.83 223.804 1341.12 223.803C1351.4 223.802 1349.93 209.398 1359.98 209.398C1369.41 209.398 1369.41 223.803 1378.84 223.803C1388.27 223.803 1387.41 209.398 1397.7 209.398C1407.99 209.398 1407.02 223.803 1416.33 223.803C1425.65 223.803 1421.57 209.398 1434.96 209.398" stroke="white" stroke-width="4" stroke-linecap="round"/>
<path d="M1227.71 269.638L1227.71 488.338" stroke="#ECECEC" stroke-width="2"/>
<path d="M1226.55 487.028H1599.13" stroke="#ECECEC" stroke-width="2"/>
<path d="M386.489 472.501C386.19 472.496 385.892 472.439 385.594 472.331C385.295 472.222 385.023 472.038 384.777 471.78C384.531 471.52 384.333 471.168 384.184 470.725C384.035 470.28 383.96 469.722 383.96 469.049C383.96 468.405 384.02 467.835 384.141 467.338C384.262 466.838 384.437 466.418 384.667 466.077C384.896 465.734 385.173 465.473 385.498 465.296C385.824 465.118 386.193 465.029 386.602 465.029C387.009 465.029 387.372 465.111 387.689 465.274C388.008 465.435 388.269 465.66 388.47 465.949C388.671 466.238 388.801 466.571 388.861 466.947H387.994C387.914 466.62 387.757 466.349 387.525 466.134C387.293 465.918 386.986 465.811 386.602 465.811C386.039 465.811 385.595 466.056 385.27 466.546C384.949 467.036 384.786 467.724 384.784 468.609H384.841C384.973 468.408 385.131 468.236 385.313 468.094C385.498 467.95 385.701 467.838 385.924 467.76C386.146 467.682 386.382 467.643 386.631 467.643C387.047 467.643 387.428 467.747 387.774 467.956C388.12 468.162 388.397 468.447 388.605 468.811C388.813 469.174 388.917 469.589 388.917 470.058C388.917 470.508 388.817 470.92 388.616 471.294C388.414 471.665 388.132 471.961 387.767 472.181C387.405 472.399 386.979 472.506 386.489 472.501ZM386.489 471.72C386.787 471.72 387.054 471.645 387.291 471.496C387.53 471.347 387.718 471.147 387.856 470.896C387.995 470.645 388.065 470.366 388.065 470.058C388.065 469.757 387.998 469.484 387.863 469.238C387.73 468.989 387.547 468.791 387.312 468.645C387.08 468.498 386.815 468.424 386.517 468.424C386.292 468.424 386.083 468.469 385.888 468.559C385.694 468.647 385.524 468.768 385.377 468.921C385.233 469.075 385.119 469.252 385.036 469.451C384.953 469.647 384.912 469.854 384.912 470.072C384.912 470.361 384.979 470.631 385.114 470.882C385.252 471.133 385.439 471.335 385.675 471.489C385.914 471.643 386.185 471.72 386.489 471.72ZM392.686 472.501C392.151 472.501 391.695 472.355 391.319 472.064C390.943 471.771 390.655 471.346 390.456 470.789C390.257 470.231 390.158 469.556 390.158 468.765C390.158 467.979 390.257 467.308 390.456 466.752C390.657 466.193 390.946 465.767 391.323 465.473C391.701 465.177 392.156 465.029 392.686 465.029C393.216 465.029 393.67 465.177 394.046 465.473C394.425 465.767 394.714 466.193 394.913 466.752C395.114 467.308 395.215 467.979 395.215 468.765C395.215 469.556 395.115 470.231 394.916 470.789C394.717 471.346 394.43 471.771 394.053 472.064C393.677 472.355 393.221 472.501 392.686 472.501ZM392.686 471.72C393.216 471.72 393.628 471.464 393.922 470.953C394.215 470.441 394.362 469.712 394.362 468.765C394.362 468.136 394.295 467.599 394.16 467.157C394.027 466.714 393.836 466.377 393.585 466.145C393.336 465.913 393.037 465.796 392.686 465.796C392.161 465.796 391.75 466.056 391.454 466.574C391.158 467.09 391.01 467.821 391.01 468.765C391.01 469.395 391.076 469.93 391.209 470.37C391.341 470.811 391.532 471.146 391.781 471.375C392.032 471.605 392.333 471.72 392.686 471.72Z" fill="#4F4F4F"/>
<path d="M315.773 470.91V470.186L318.969 465.129H319.495V466.251H319.14L316.725 470.072V470.129H321.029V470.91H315.773ZM319.196 472.402V470.69V470.353V465.129H320.034V472.402H319.196ZM324.732 472.501C324.197 472.501 323.741 472.355 323.364 472.064C322.988 471.771 322.7 471.346 322.502 470.789C322.303 470.231 322.203 469.556 322.203 468.765C322.203 467.979 322.303 467.308 322.502 466.752C322.703 466.193 322.992 465.767 323.368 465.473C323.747 465.177 324.201 465.029 324.732 465.029C325.262 465.029 325.715 465.177 326.092 465.473C326.471 465.767 326.759 466.193 326.958 466.752C327.159 467.308 327.26 467.979 327.26 468.765C327.26 469.556 327.161 470.231 326.962 470.789C326.763 471.346 326.475 471.771 326.099 472.064C325.722 472.355 325.267 472.501 324.732 472.501ZM324.732 471.72C325.262 471.72 325.674 471.464 325.967 470.953C326.261 470.441 326.408 469.712 326.408 468.765C326.408 468.136 326.34 467.599 326.205 467.157C326.073 466.714 325.881 466.377 325.63 466.145C325.382 465.913 325.082 465.796 324.732 465.796C324.206 465.796 323.795 466.056 323.499 466.574C323.203 467.09 323.056 467.821 323.056 468.765C323.056 469.395 323.122 469.93 323.254 470.37C323.387 470.811 323.578 471.146 323.826 471.375C324.077 471.605 324.379 471.72 324.732 471.72Z" fill="#4F4F4F"/>
<path d="M254.596 472.402V471.762L256.996 469.135C257.278 468.827 257.51 468.559 257.692 468.332C257.875 468.102 258.01 467.887 258.097 467.686C258.187 467.482 258.232 467.269 258.232 467.046C258.232 466.791 258.171 466.569 258.048 466.382C257.927 466.195 257.761 466.051 257.55 465.949C257.34 465.847 257.103 465.796 256.84 465.796C256.561 465.796 256.317 465.854 256.109 465.971C255.903 466.084 255.743 466.244 255.629 466.45C255.518 466.656 255.462 466.897 255.462 467.174H254.624C254.624 466.748 254.722 466.374 254.919 466.052C255.115 465.73 255.383 465.479 255.722 465.299C256.062 465.119 256.445 465.029 256.869 465.029C257.295 465.029 257.672 465.119 258.001 465.299C258.33 465.479 258.588 465.722 258.776 466.027C258.963 466.333 259.056 466.672 259.056 467.046C259.056 467.314 259.008 467.576 258.91 467.831C258.816 468.085 258.65 468.368 258.413 468.68C258.179 468.99 257.853 469.369 257.437 469.816L255.803 471.564V471.62H259.184V472.402H254.596ZM263.023 472.501C262.488 472.501 262.032 472.355 261.655 472.064C261.279 471.771 260.991 471.346 260.793 470.789C260.594 470.231 260.494 469.556 260.494 468.765C260.494 467.979 260.594 467.308 260.793 466.752C260.994 466.193 261.283 465.767 261.659 465.473C262.038 465.177 262.492 465.029 263.023 465.029C263.553 465.029 264.006 465.177 264.383 465.473C264.762 465.767 265.05 466.193 265.249 466.752C265.45 467.308 265.551 467.979 265.551 468.765C265.551 469.556 265.452 470.231 265.253 470.789C265.054 471.346 264.766 471.771 264.39 472.064C264.013 472.355 263.558 472.501 263.023 472.501ZM263.023 471.72C263.553 471.72 263.965 471.464 264.258 470.953C264.552 470.441 264.699 469.712 264.699 468.765C264.699 468.136 264.631 467.599 264.496 467.157C264.364 466.714 264.172 466.377 263.921 466.145C263.673 465.913 263.373 465.796 263.023 465.796C262.497 465.796 262.086 466.056 261.79 466.574C261.495 467.09 261.347 467.821 261.347 468.765C261.347 469.395 261.413 469.93 261.545 470.37C261.678 470.811 261.869 471.146 262.117 471.375C262.368 471.605 262.67 471.72 263.023 471.72Z" fill="#4F4F4F"/>
<g filter="url(#filter3_d_247_2)">
<path d="M11.5 130.126C11.5 119.908 19.7827 111.626 30 111.626H495.312C505.53 111.626 513.812 119.908 513.812 130.126V575.978C513.812 586.196 505.53 594.478 495.312 594.478H30C19.7827 594.478 11.5 586.196 11.5 575.978V130.126Z" stroke="white" stroke-width="3" shape-rendering="crispEdges"/>
</g>
<path d="M118.279 520.678C125.265 520.678 123.519 510.856 130.505 510.856C137.49 510.856 136.908 520.679 143.894 520.678C150.88 520.677 149.877 510.856 156.702 510.856C163.105 510.856 163.105 520.678 169.509 520.678C175.913 520.678 175.331 510.856 182.317 510.856" stroke="white" stroke-width="2" stroke-linecap="round"/>
<path d="M235.875 520.678C242.861 520.678 241.114 510.856 248.1 510.856C255.086 510.856 254.504 520.679 261.49 520.678C268.476 520.677 267.473 510.856 274.297 510.856C280.701 510.856 280.701 520.678 287.105 520.678C293.509 520.678 292.926 510.856 299.912 510.856" stroke="white" stroke-width="2" stroke-linecap="round"/>
<path d="M365.117 520.678C372.103 520.678 370.357 510.856 377.342 510.856C384.328 510.856 383.746 520.679 390.732 520.678C397.718 520.677 396.715 510.856 403.54 510.856C409.943 510.856 409.943 520.678 416.347 520.678C422.751 520.678 422.169 510.856 429.154 510.856" stroke="white" stroke-width="2" stroke-linecap="round"/>
<rect x="82.1875" y="510.856" width="24.4506" height="10.4766" fill="#A49C72"/>
<rect x="202.113" y="510.856" width="24.4506" height="10.4766" fill="#728CA4"/>
<rect x="329.023" y="510.856" width="24.4506" height="10.4766" fill="#A47284"/>
<path d="M81.0234 178.878C88.0093 178.878 86.2629 169.057 93.2487 169.057C100.235 169.057 99.6525 178.879 106.638 178.878C113.624 178.878 112.622 169.057 119.446 169.057C125.85 169.057 125.85 178.878 132.253 178.878C138.657 178.878 138.075 169.057 145.061 169.057" stroke="white" stroke-width="2" stroke-linecap="round"/>
<path d="M79.8613 474.188H452.442" stroke="#ECECEC" stroke-width="2"/>
<path d="M81.1035 256.798L81.1035 475.497" stroke="#ECECEC" stroke-width="2"/>
<path d="M82.1895 216.201C92.4778 216.201 89.9057 201.796 100.194 201.796C110.482 201.796 109.625 216.203 119.913 216.201C130.202 216.2 128.725 201.796 138.775 201.796C148.206 201.796 148.206 216.201 157.637 216.201C167.068 216.201 166.211 201.796 176.499 201.796" stroke="white" stroke-width="4" stroke-linecap="round"/>
<rect x="82.6875" y="460.282" width="21.122" height="12.0958" fill="#728CA4" stroke="#728CA4"/>
<rect x="82.6875" y="445.877" width="304.05" height="12.0958" fill="#A47284" stroke="#A47284"/>
<rect x="82.6875" y="431.472" width="25.7792" height="12.0958" fill="#A49C72" stroke="#A49C72"/>
<rect x="82.6875" y="417.067" width="195.769" height="12.0958" fill="#728CA4" stroke="#728CA4"/>
<rect x="82.6875" y="402.661" width="100.295" height="12.0958" fill="#A47284" stroke="#A47284"/>
<rect x="82.6875" y="388.256" width="149.197" height="12.0958" fill="#A49C72" stroke="#A49C72"/>
<rect x="82.6875" y="373.851" width="117.76" height="12.0958" fill="#728CA4" stroke="#728CA4"/>
<rect x="82.6875" y="359.445" width="153.854" height="12.0958" fill="#A47284" stroke="#A47284"/>
<rect x="82.6875" y="345.04" width="71.1875" height="12.0958" fill="#A49C72" stroke="#A49C72"/>
<rect x="82.6875" y="330.635" width="94.4738" height="12.0958" fill="#728CA4" stroke="#728CA4"/>
<rect x="82.6875" y="316.229" width="246.999" height="12.0958" fill="#A47284" stroke="#A47284"/>
<rect x="-0.5" y="0.5" width="253.985" height="12.0958" transform="matrix(-1 0 0 1 336.174 301.324)" fill="#A49C72" stroke="#A49C72"/>
<rect x="82.6875" y="287.418" width="40.9153" height="12.0958" fill="#728CA4" stroke="#728CA4"/>
<rect x="82.6875" y="273.013" width="100.295" height="12.0958" fill="#A47284" stroke="#A47284"/>
<rect x="-0.5" y="0.5" width="71.1875" height="12.0958" transform="matrix(-1 0 0 1 153.377 258.108)" fill="#A49C72" stroke="#A49C72"/>
<defs>
<filter id="filter0_d_247_2" x="547.715" y="0" width="566.25" height="374.146" filterUnits="userSpaceOnUse" color-interpolation-filters="sRGB">
<feFlood flood-opacity="0" result="BackgroundImageFix"/>
<feColorMatrix in="SourceAlpha" type="matrix" values="0 0 0 0 0 0 0 0 0 0 0 0 0 0 0 0 0 0 127 0" result="hardAlpha"/>
<feOffset dy="2"/>
<feGaussianBlur stdDeviation="5"/>
<feComposite in2="hardAlpha" operator="out"/>
<feColorMatrix type="matrix" values="0 0 0 0 0 0 0 0 0 0 0 0 0 0 0 0 0 0 0.1 0"/>
<feBlend mode="normal" in2="BackgroundImageFix" result="effect1_dropShadow_247_2"/>
<feBlend mode="normal" in="SourceGraphic" in2="effect1_dropShadow_247_2" result="shape"/>
</filter>
<filter id="filter1_d_247_2" x="547.715" y="411.798" width="559.078" height="321.202" filterUnits="userSpaceOnUse" color-interpolation-filters="sRGB">
<feFlood flood-opacity="0" result="BackgroundImageFix"/>
<feColorMatrix in="SourceAlpha" type="matrix" values="0 0 0 0 0 0 0 0 0 0 0 0 0 0 0 0 0 0 127 0" result="hardAlpha"/>
<feOffset dy="2"/>
<feGaussianBlur stdDeviation="5"/>
<feComposite in2="hardAlpha" operator="out"/>
<feColorMatrix type="matrix" values="0 0 0 0 0 0 0 0 0 0 0 0 0 0 0 0 0 0 0.1 0"/>
<feBlend mode="normal" in2="BackgroundImageFix" result="effect1_dropShadow_247_2"/>
<feBlend mode="normal" in="SourceGraphic" in2="effect1_dropShadow_247_2" result="shape"/>
</filter>
<filter id="filter2_d_247_2" x="1146.69" y="113.656" width="525.312" height="505.853" filterUnits="userSpaceOnUse" color-interpolation-filters="sRGB">
<feFlood flood-opacity="0" result="BackgroundImageFix"/>
<feColorMatrix in="SourceAlpha" type="matrix" values="0 0 0 0 0 0 0 0 0 0 0 0 0 0 0 0 0 0 127 0" result="hardAlpha"/>
<feOffset dy="2"/>
<feGaussianBlur stdDeviation="5"/>
<feComposite in2="hardAlpha" operator="out"/>
<feColorMatrix type="matrix" values="0 0 0 0 0 0 0 0 0 0 0 0 0 0 0 0 0 0 0.1 0"/>
<feBlend mode="normal" in2="BackgroundImageFix" result="effect1_dropShadow_247_2"/>
<feBlend mode="normal" in="SourceGraphic" in2="effect1_dropShadow_247_2" result="shape"/>
</filter>
<filter id="filter3_d_247_2" x="0" y="102.126" width="525.312" height="505.853" filterUnits="userSpaceOnUse" color-interpolation-filters="sRGB">
<feFlood flood-opacity="0" result="BackgroundImageFix"/>
<feColorMatrix in="SourceAlpha" type="matrix" values="0 0 0 0 0 0 0 0 0 0 0 0 0 0 0 0 0 0 127 0" result="hardAlpha"/>
<feOffset dy="2"/>
<feGaussianBlur stdDeviation="5"/>
<feComposite in2="hardAlpha" operator="out"/>
<feColorMatrix type="matrix" values="0 0 0 0 0 0 0 0 0 0 0 0 0 0 0 0 0 0 0.1 0"/>
<feBlend mode="normal" in2="BackgroundImageFix" result="effect1_dropShadow_247_2"/>
<feBlend mode="normal" in="SourceGraphic" in2="effect1_dropShadow_247_2" result="shape"/>
</filter>
</defs>
</svg>
